# 3ds Max Wavefront OBJ Exporter v0.97b - (c)2007 guruware
# File Created: 28.10.2015 16:12:46

mtllib moontear.mtl

#
# object node_00FB0D27
#

v  0.9843 -6.8003 9.3645
v  -0.1142 -7.1185 7.7602
v  -0.5354 -9.2945 5.6544
v  -2.1614 -5.6778 7.1520
v  1.5433 -7.3761 7.8420
v  0.1417 -5.5169 8.5844
v  3.3346 -6.3243 6.1771
v  0.6654 -2.9087 9.7117
v  1.8701 -5.6230 8.5462
v  0.6417 -6.6793 8.1723
# 10 vertices

vn -0.7113 -0.4128 0.5689
vn -0.5886 -0.6148 0.5249
vn 0.3187 -0.8419 0.4354
vn -0.5294 0.1591 0.8333
vn 0.7269 -0.5101 0.4598
vn -0.7662 -0.1191 0.6315
vn 0.8011 -0.2144 0.5587
vn 0.6849 -0.0089 0.7286
vn -0.5355 -0.3231 -0.7803
vn -0.4694 0.7245 -0.5047
vn 0.2101 0.6273 -0.7499
vn -0.0434 0.3779 -0.9248
vn -0.0138 0.6967 -0.7172
vn 0.1134 0.3749 -0.9201
vn 0.3912 0.1745 -0.9036
vn 0.4445 0.4630 -0.7668
# 16 vertex normals

vt 0.9700 0.8100 0.0000
vt 0.9700 0.9700 0.0000
vt 0.4700 0.9700 0.0000
vt 0.9600 0.9700 0.0000
# 4 texture coords

g node_00FB0D27
usemtl material_01713A59
s off
f 1/1/1 2/2/1 3/3/1 
f 1/1/2 4/3/2 2/2/2 
f 1/1/3 3/3/3 5/2/3 
f 1/1/4 6/2/4 4/3/4 
f 1/1/5 5/2/5 7/3/5 
f 1/1/6 8/3/6 6/2/6 
f 1/1/7 7/3/7 9/2/7 
f 1/1/8 9/2/8 8/3/8 
f 10/4/9 7/3/9 5/2/9 
f 10/4/10 9/2/10 7/3/10 
f 10/4/11 5/2/11 3/3/11 
f 10/4/12 8/3/12 9/2/12 
f 10/4/13 3/3/13 2/2/13 
f 10/4/14 6/2/14 8/3/14 
f 10/4/15 2/2/15 4/3/15 
f 10/4/16 4/3/16 6/2/16 
# 0 polygons - 16 triangles

#
# object node_00D37663
#

v  0.0591 6.7913 -1.3622
v  -2.2283 3.0551 -2.9567
v  -2.7835 5.0669 1.1024
v  0.5945 4.2756 -3.7087
v  -2.2402 9.3701 0.8780
v  3.7598 4.3622 -3.3307
v  -0.7441 9.9449 -0.7559
v  3.1378 7.2756 0.3622
v  0.6929 10.8228 0.2795
v  -3.5906 1.9528 0.1890
v  0.5906 1.6535 -7.1693
v  -4.1181 -1.2677 -5.4134
v  -1.7913 12.0394 -0.1890
v  -2.1339 9.5787 3.0669
v  -2.5748 13.8937 -0.2480
v  5.5157 3.2362 -0.7717
v  0.4488 11.7480 2.3150
v  2.6575 9.0079 3.7008
v  -5.5000 -2.4094 -0.3740
v  -3.3622 2.0236 5.0197
v  4.5472 0.6260 -6.1496
v  0.2323 -1.7677 -9.1063
v  -1.2677 11.7795 3.2008
v  -1.8465 6.8465 5.0039
v  5.4803 3.0906 4.0827
v  0.4843 8.5118 6.1024
v  3.3189 2.9724 7.3386
v  -4.0079 -4.5000 -6.3031
v  -4.7677 -3.0709 4.3425
v  -5.5945 -5.8504 -0.9528
v  4.5197 -4.3543 -7.5118
v  -1.0354 -5.8858 -9.3858
v  1.8583 -5.6063 -9.0984
v  6.7165 -2.3268 -2.3701
v  0.5827 2.7756 8.7362
v  4.2638 -3.7638 7.2283
v  0.6654 -3.7441 9.4213
v  -2.1693 2.0709 7.4764
v  -3.5197 -7.5945 -6.6654
v  -3.4134 -8.0866 4.5118
v  -4.3583 -9.3346 -1.5866
v  2.3307 -7.6102 -8.1024
v  6.8071 -3.5276 3.5551
v  5.8701 -7.7323 -2.5433
v  -2.4567 -4.1142 7.9961
v  0.8976 -7.9764 7.3819
v  -1.8898 -9.6732 -6.4882
v  -0.8780 -10.1614 4.0984
v  -1.5906 -10.9724 -2.0591
v  -1.5354 -8.0394 -8.2441
v  4.8386 -7.6614 3.2598
v  2.5197 -9.0945 -6.4764
v  2.4134 -9.9921 2.5394
v  2.2835 -10.3150 -2.6693
# 54 vertices

vn -0.7010 0.5962 -0.3914
vn -0.4315 0.5645 -0.7037
vn -0.6702 0.0460 -0.7408
vn 0.0674 0.6882 -0.7224
vn -0.7270 -0.0535 -0.6845
vn 0.2041 0.7850 -0.5849
vn 0.4446 0.2770 -0.8518
vn 0.4352 0.2800 -0.8557
vn -0.9058 0.3172 -0.2811
vn -0.4511 0.7116 -0.5386
vn -0.8515 0.4852 -0.1987
vn -0.5749 0.5796 -0.5775
vn 0.0502 0.7960 -0.6032
vn -0.6991 -0.1609 -0.6967
vn -0.9912 0.1270 0.0360
vn -0.5128 -0.2429 -0.8234
vn -0.9967 -0.0603 0.0541
vn 0.2127 0.0588 -0.9753
vn 0.3576 0.4064 -0.8408
vn 0.7837 0.5450 -0.2979
vn 0.8150 0.5581 -0.1559
vn 0.8311 0.5334 -0.1572
vn 0.8080 0.5624 -0.1756
vn 0.6858 0.6900 -0.2314
vn -0.8979 0.4128 -0.1527
vn -0.9701 0.2390 0.0424
vn -0.9172 0.3966 0.0375
vn 0.3426 0.6108 -0.7138
vn -0.5451 0.4556 -0.7038
vn 0.3294 0.4388 -0.8360
vn 0.8172 0.4469 -0.3641
vn -0.8206 0.2931 0.4907
vn -0.9760 0.0480 0.2125
vn -0.8045 0.2849 0.5212
vn -0.9499 0.2988 0.0918
vn 0.2423 0.8654 0.4387
vn 0.9019 0.4315 0.0195
vn 0.4755 0.6710 0.5689
vn 0.7586 0.3953 0.5179
vn 0.6106 0.4568 0.6469
vn -0.5878 0.3377 0.7352
vn 0.3289 0.7195 0.6117
vn -0.9659 0.0376 -0.2563
vn -0.9539 0.2390 0.1816
vn -0.9611 0.0713 -0.2670
vn -0.9881 0.0013 0.1536
vn 0.4589 0.2320 -0.8576
vn -0.6121 0.2396 -0.7536
vn 0.4381 0.1838 -0.8799
vn 0.0951 0.0382 -0.9947
vn -0.6678 0.1763 -0.7232
vn 0.9782 0.2073 0.0134
vn 0.9105 0.2831 -0.3014
vn 0.8971 0.1119 -0.4274
vn 0.3968 0.3886 0.8316
vn 0.8266 0.1069 0.5526
vn 0.4470 0.0991 0.8890
vn 0.5197 0.0590 0.8523
vn -0.8672 0.2739 0.4158
vn -0.6078 0.3971 0.6877
vn -0.4333 0.0887 0.8969
vn -0.4631 0.3633 0.8084
vn -0.8850 0.1875 0.4261
vn -0.9445 -0.1129 -0.3086
vn -0.9312 -0.2422 0.2725
vn -0.9260 -0.2831 -0.2499
vn -0.9076 -0.3610 0.2145
vn -0.7271 -0.0345 -0.6856
vn 0.5797 -0.2490 -0.7759
vn 0.1296 -0.4167 -0.8998
vn 0.9806 0.1946 0.0245
vn 0.9293 -0.1345 -0.3440
vn 0.9871 -0.1531 -0.0461
vn 0.7606 -0.4218 -0.4935
vn 0.8129 0.1175 0.5704
vn -0.4227 0.0954 0.9012
vn 0.4845 -0.3580 0.7982
vn -0.3340 -0.4240 0.8418
vn -0.8520 -0.2139 0.4778
vn -0.8310 0.0848 0.5498
vn -0.4648 -0.5179 0.7181
vn -0.7302 -0.6003 -0.3263
vn -0.5888 -0.7691 0.2486
vn -0.5242 -0.8261 -0.2069
vn -0.4804 -0.8606 0.1690
vn -0.4157 -0.6373 0.6489
vn 0.0855 -0.4821 -0.8719
vn -0.6368 -0.2405 -0.7326
vn 0.8862 -0.4337 0.1628
vn 0.7531 -0.4400 -0.4891
vn 0.6673 -0.7338 0.1276
vn 0.5754 -0.7885 -0.2171
vn 0.5832 -0.8116 0.0358
vn 0.1251 -0.9470 -0.2958
vn 0.1162 -0.9509 -0.2868
vn 0.1828 -0.9772 0.1076
vn 0.0795 -0.9950 0.0597
vn 0.7652 -0.4004 0.5041
vn 0.5394 -0.7041 0.4619
vn 0.6465 -0.4954 0.5802
vn 0.2519 -0.8629 0.4380
vn -0.5997 -0.5219 -0.6066
vn 0.1057 -0.7283 -0.6771
vn 0.0987 -0.7384 -0.6671
# 104 vertex normals

vt 0.3100 0.8700 0.0000
vt 0.5000 0.7500 0.0000
vt 0.2800 0.6900 0.0000
vt 0.4700 0.8700 0.0000
vt 0.1900 0.8700 0.0000
vt 0.4700 0.7800 0.0000
vt 0.1900 0.9700 0.0000
vt 0.2800 0.7400 0.0000
vt 0.4100 0.5600 0.0000
vt 0.6900 0.8400 0.0000
vt 0.7200 0.6300 0.0000
vt 0.1200 0.9700 0.0000
vt 0.1200 0.7500 0.0000
vt 0.0300 0.9700 0.0000
vt 0.4100 0.6300 0.0000
vt 0.0900 0.8400 0.0000
vt 0.1200 0.6900 0.0000
vt 0.5600 0.4100 0.0000
vt 0.2200 0.4400 0.0000
vt 0.6600 0.6600 0.0000
vt 0.8700 0.6900 0.0000
vt 0.0300 0.7800 0.0000
vt 0.1200 0.5600 0.0000
vt 0.2500 0.5000 0.0000
vt 0.0300 0.5700 0.0000
vt 0.1200 0.4100 0.0000
vt 0.8100 0.5300 0.0000
vt 0.3700 0.2800 0.0000
vt 0.6900 0.3100 0.0000
vt 0.7800 0.5300 0.0000
vt 0.9700 0.5700 0.0000
vt 0.9000 0.5700 0.0000
vt 0.5600 0.4700 0.0000
vt 0.0300 0.3600 0.0000
vt 0.2200 0.1600 0.0000
vt 0.0300 0.0900 0.0000
vt 0.1300 0.3600 0.0000
vt 0.9100 0.4100 0.0000
vt 0.5300 0.1200 0.0000
vt 0.8100 0.1600 0.0000
vt 0.9000 0.4900 0.0000
vt 0.3700 0.0300 0.0000
vt 0.9700 0.3700 0.0000
vt 0.6300 0.0300 0.0000
vt 0.9400 0.0600 0.0000
vt 1.0000 0.4800 0.0000
vt 0.5000 0.1900 0.0000
vt 0.8700 0.4100 0.0000
vt 0.6300 0.1200 0.0000
vt 0.8400 0.1900 0.0000
# 50 texture coords

g node_00D37663
usemtl material_01713A59
s off
f 11/5/17 12/6/17 13/7/17 
f 11/5/18 14/8/18 12/6/18 
f 11/5/19 13/7/19 15/9/19 
f 11/5/20 16/10/20 14/8/20 
f 11/5/21 15/9/21 17/11/21 
f 11/5/22 18/12/22 16/10/22 
f 11/5/23 17/11/23 19/9/23 
f 11/5/24 19/9/24 18/12/24 
f 12/6/25 20/13/25 13/7/25 
f 12/6/26 14/8/26 21/14/26 
f 12/6/27 22/15/27 20/13/27 
f 12/6/28 21/14/28 22/15/28 
f 14/8/29 16/10/29 21/14/29 
f 15/9/30 23/16/30 17/11/30 
f 15/9/31 13/7/31 24/17/31 
f 15/9/32 25/18/32 23/16/32 
f 15/9/33 24/17/33 25/18/33 
f 23/16/34 25/18/34 19/9/34 
f 23/16/35 19/9/35 17/11/35 
f 18/12/36 26/19/36 16/10/36 
f 18/12/37 19/9/37 27/20/37 
f 18/12/38 28/21/38 26/19/38 
f 18/12/39 27/20/39 28/21/39 
f 19/9/40 25/18/40 27/20/40 
f 20/13/41 22/15/41 29/22/41 
f 20/13/42 30/23/42 13/7/42 
f 20/13/43 29/22/43 30/23/43 
f 21/14/44 16/10/44 31/24/44 
f 21/14/45 32/25/45 22/15/45 
f 21/14/46 31/24/46 32/25/46 
f 16/10/47 26/19/47 31/24/47 
f 24/17/48 33/26/48 25/18/48 
f 24/17/49 13/7/49 34/27/49 
f 24/17/50 34/27/50 33/26/50 
f 13/7/51 30/23/51 34/27/51 
f 25/18/52 33/26/52 27/20/52 
f 28/21/53 35/28/53 26/19/53 
f 28/21/54 27/20/54 36/29/54 
f 28/21/55 37/30/55 35/28/55 
f 28/21/56 36/29/56 37/30/56 
f 33/26/57 34/27/57 36/29/57 
f 33/26/58 36/29/58 27/20/58 
f 29/22/59 22/15/59 38/31/59 
f 29/22/60 39/32/60 30/23/60 
f 29/22/61 38/31/61 40/33/61 
f 29/22/62 40/33/62 39/32/62 
f 32/25/63 31/24/63 41/34/63 
f 32/25/64 42/35/64 22/15/64 
f 32/25/65 41/34/65 43/36/65 
f 32/25/66 43/36/66 42/35/66 
f 22/15/67 42/35/67 38/31/67 
f 26/19/68 35/28/68 44/37/68 
f 26/19/69 44/37/69 31/24/69 
f 31/24/70 44/37/70 41/34/70 
f 37/30/71 36/29/71 45/38/71 
f 37/30/72 46/39/72 35/28/72 
f 37/30/73 45/38/73 47/40/73 
f 37/30/74 47/40/74 46/39/74 
f 34/27/75 30/23/75 48/41/75 
f 34/27/76 48/41/76 36/29/76 
f 45/38/77 48/41/77 47/40/77 
f 45/38/78 36/29/78 48/41/78 
f 30/23/79 39/32/79 48/41/79 
f 40/33/80 38/31/80 49/42/80 
f 40/33/81 50/43/81 39/32/81 
f 40/33/82 49/42/82 51/44/82 
f 40/33/83 51/44/83 50/43/83 
f 38/31/84 42/35/84 49/42/84 
f 43/36/85 41/34/85 52/45/85 
f 43/36/86 52/45/86 42/35/86 
f 44/37/87 35/28/87 53/32/87 
f 44/37/88 54/33/88 41/34/88 
f 44/37/89 53/32/89 54/33/89 
f 41/34/90 54/33/90 52/45/90 
f 35/28/91 46/39/91 53/32/91 
f 47/40/92 48/41/92 55/39/92 
f 47/40/93 56/46/93 46/39/93 
f 47/40/94 55/39/94 56/46/94 
f 55/39/95 39/32/95 50/43/95 
f 55/39/96 48/41/96 39/32/96 
f 55/39/97 50/43/97 56/46/97 
f 51/44/98 49/42/98 57/47/98 
f 51/44/99 58/48/99 50/43/99 
f 51/44/100 57/47/100 59/49/100 
f 51/44/101 59/49/101 58/48/101 
f 50/43/102 58/48/102 56/46/102 
f 42/35/103 52/45/103 60/50/103 
f 42/35/104 60/50/104 49/42/104 
f 54/33/105 53/32/105 61/51/105 
f 54/33/106 62/52/106 52/45/106 
f 54/33/107 61/51/107 63/53/107 
f 54/33/108 64/54/108 62/52/108 
f 54/33/109 63/53/109 64/54/109 
f 64/54/110 57/47/110 62/52/110 
f 64/54/111 59/49/111 57/47/111 
f 64/54/112 58/48/112 59/49/112 
f 64/54/113 63/53/113 58/48/113 
f 61/51/114 53/32/114 46/39/114 
f 61/51/115 56/46/115 63/53/115 
f 61/51/116 46/39/116 56/46/116 
f 56/46/117 58/48/117 63/53/117 
f 49/42/118 60/50/118 57/47/118 
f 60/50/119 52/45/119 62/52/119 
f 60/50/120 62/52/120 57/47/120 
# 0 polygons - 104 triangles

